<svg width="19" height="16" viewBox="0 0 19 16" fill="none" xmlns="http://www.w3.org/2000/svg">
<path fill-rule="evenodd" clip-rule="evenodd" d="M-5.98164e-05 8.00005C-5.98425e-05 7.70168 0.118465 7.41553 0.329444 7.20455C0.540422 6.99357 0.826572 6.87505 1.12494 6.87505L14.1592 6.87504L9.32844 2.04655C9.22384 1.94195 9.14087 1.81777 9.08426 1.68111C9.02765 1.54444 8.99852 1.39797 8.99852 1.25005C8.99852 1.10212 9.02765 0.955646 9.08426 0.818983C9.14087 0.682319 9.22384 0.558143 9.32844 0.453545C9.43304 0.348947 9.55721 0.265976 9.69388 0.209368C9.83054 0.15276 9.97702 0.123626 10.1249 0.123625C10.2729 0.123625 10.4193 0.15276 10.556 0.209367C10.6927 0.265976 10.8168 0.348947 10.9214 0.453545L17.6714 7.20354C17.7762 7.30805 17.8593 7.43219 17.916 7.56887C17.9728 7.70555 18.002 7.85207 18.002 8.00004C18.002 8.14802 17.9728 8.29454 17.916 8.43122C17.8593 8.5679 17.7762 8.69204 17.6714 8.79654L10.9214 15.5465C10.7102 15.7578 10.4237 15.8765 10.1249 15.8765C9.8262 15.8765 9.53969 15.7578 9.32844 15.5465C9.1172 15.3353 8.99852 15.0488 8.99852 14.75C8.99852 14.4513 9.1172 14.1648 9.32844 13.9535L14.1592 9.12504L1.12494 9.12505C0.826572 9.12505 0.540422 9.00652 0.329444 8.79554C0.118465 8.58456 -5.97903e-05 8.29841 -5.98164e-05 8.00005Z" fill="#474747"/>
</svg>
