<svg width="78" height="78" viewBox="0 0 78 78" fill="none" xmlns="http://www.w3.org/2000/svg">
<g clip-path="url(#clip0)">
<path d="M38.2907 65.3631C38.0125 65.0849 37.6267 64.9247 37.2333 64.9247C36.84 64.9247 36.4542 65.0848 36.176 65.3631C35.8979 65.6411 35.7379 66.0269 35.7379 66.4202C35.7379 66.8152 35.8979 67.1994 36.176 67.4775C36.4542 67.7572 36.84 67.9157 37.2333 67.9157C37.6267 67.9157 38.0125 67.7572 38.2907 67.4775C38.5688 67.1994 38.7288 66.8137 38.7288 66.4202C38.7288 66.0269 38.5687 65.6411 38.2907 65.3631Z" fill="white"/>
<path d="M45.4108 51.5671V40.563C45.4108 40.0662 45.1641 39.6017 44.7524 39.3236C44.3407 39.0456 43.8177 38.9903 43.3566 39.1757L17.5874 49.554H9.28747C4.55155 49.554 0.698425 53.4071 0.698425 58.1433C0.698425 62.8796 4.55155 66.7327 9.28776 66.7327H10.2761V75.7134C10.2761 76.5392 10.9457 77.2089 11.7716 77.2089H17.8768C18.7028 77.2089 19.3723 76.5392 19.3723 75.7134V67.4541L43.3574 77.1009C43.5373 77.1733 43.7268 77.209 43.9152 77.209C44.2095 77.209 44.5017 77.1222 44.7527 76.9527C45.1642 76.6747 45.4108 76.2102 45.4108 75.7136V64.7096C48.4099 64.0272 50.6558 61.341 50.6558 58.1384C50.6558 54.9358 48.4099 52.2495 45.4108 51.5671ZM16.3812 74.2179H13.2671V66.7325H16.3813V74.2179H16.3812ZM16.3815 63.7416H9.28776C6.20078 63.7416 3.6894 61.2302 3.6894 58.1433C3.6894 55.0563 6.20078 52.545 9.28776 52.545H16.3821L16.3815 63.7416ZM42.42 73.4999H42.4199L19.373 64.2304V52.0592L35.7377 45.4686V60.3099C35.7377 61.1357 36.4072 61.8053 37.2332 61.8053C38.0592 61.8053 38.7287 61.1357 38.7287 60.3099V44.264L42.42 42.7773V73.4999ZM45.4108 61.5756V54.7009C46.736 55.2796 47.6648 56.6022 47.6648 58.1383C47.6648 59.6743 46.7361 60.9969 45.4108 61.5756Z" fill="white"/>
<path d="M64.9225 56.687H56.4553C55.6294 56.687 54.9598 57.3567 54.9598 58.1825C54.9598 59.0083 55.6294 59.678 56.4553 59.678H64.9225C65.7485 59.678 66.418 59.0083 66.418 58.1825C66.418 57.3567 65.7485 56.687 64.9225 56.687Z" fill="white"/>
<path d="M57.9786 45.7285C57.3947 45.1447 56.4477 45.1447 55.8636 45.7285L52.9429 48.6492C52.3589 49.2332 52.3589 50.1801 52.9429 50.7643C53.2351 51.0562 53.6178 51.2023 54.0005 51.2023C54.3832 51.2023 54.766 51.0562 55.0579 50.7643L57.9786 47.8436C58.5626 47.2596 58.5626 46.3127 57.9786 45.7285Z" fill="white"/>
<path d="M58.0884 68.3819L55.07 65.3634C54.486 64.7796 53.5391 64.7796 52.955 65.3634C52.371 65.9474 52.371 66.8944 52.955 67.4785L55.9735 70.497C56.2655 70.7889 56.6482 70.935 57.0309 70.935C57.4136 70.935 57.7965 70.7889 58.0884 70.497C58.6724 69.913 58.6724 68.9661 58.0884 68.3819Z" fill="white"/>
<path d="M71.2855 0.639729H43.4694C40.1709 0.639729 37.4874 3.32323 37.4874 6.62168V7.21988H12.3632C10.3841 7.21988 8.77405 8.83007 8.77405 10.8091V34.4378C8.77405 36.4168 10.3841 38.027 12.3632 38.027H13.9085V42.6132C13.9085 43.2181 14.273 43.7634 14.8317 43.9949C15.0167 44.0714 15.2109 44.1087 15.4037 44.1087C15.7928 44.1087 16.1754 43.9567 16.4615 43.6706L22.1051 38.027H51.8112C53.7904 38.027 55.4004 36.4168 55.4004 34.4378V29.9513H71.2855C74.5839 29.9513 77.2674 27.2678 77.2674 23.9694V6.62168C77.2673 3.32323 74.5839 0.639729 71.2855 0.639729ZM52.4094 34.4378C52.4094 34.7677 52.1411 35.036 51.8112 35.036H21.4857C21.0891 35.036 20.7086 35.1936 20.4282 35.474L16.8996 39.0028V36.5315C16.8996 35.7057 16.2301 35.036 15.4041 35.036H12.3632C12.0333 35.036 11.765 34.7677 11.765 34.4378V10.8091C11.765 10.4791 12.0333 10.2109 12.3632 10.2109H37.4874V23.9694C37.4874 27.2678 40.1709 29.9513 43.4694 29.9513H52.4094V34.4378ZM74.2765 23.9694C74.2765 25.6186 72.9347 26.9603 71.2855 26.9603H43.4694C41.8202 26.9603 40.4784 25.6186 40.4784 23.9694V6.62168C40.4784 4.97246 41.8202 3.63071 43.4694 3.63071H71.2855C72.9347 3.63071 74.2765 4.97246 74.2765 6.62168V23.9694Z" fill="white"/>
<path d="M67.0186 8.68567C66.7423 8.26244 66.2712 8.00716 65.766 8.00716L64.3353 8.00701C63.4438 7.28828 62.3203 6.88614 61.1629 6.88614C58.8071 6.88614 56.8228 8.50815 56.2685 10.694C54.5027 9.93156 52.9479 8.7561 51.7051 7.23265C51.3956 6.85324 50.9201 6.64851 50.4314 6.68694C49.943 6.72448 49.5041 6.9989 49.2564 7.42138C48.6984 8.37266 48.4035 9.46481 48.4035 10.5799C48.4035 11.3762 48.5532 12.1504 48.8344 12.8685C48.5408 13.1476 48.3691 13.5381 48.3691 13.9526V14.0108C48.3691 15.941 49.2856 18.0072 50.7579 19.3648C50.2922 19.4251 49.8196 19.4287 49.3312 19.3742C48.6413 19.2975 47.9884 19.7065 47.7564 20.3615C47.5246 21.0164 47.7744 21.7449 48.3593 22.1198C50.2295 23.3184 52.3935 23.9519 54.6171 23.9519C58.0201 23.9519 61.0841 22.6022 63.2446 20.1514C65.1372 18.0047 66.2226 15.1604 66.2226 12.3478C66.2226 12.3362 66.2224 12.3243 66.2221 12.3127L66.2191 12.1853L67.1348 10.1052C67.3384 9.64278 67.2947 9.10874 67.0186 8.68567ZM63.3474 11.2848C63.259 11.4855 63.2159 11.7031 63.221 11.9225L63.2313 12.3643C63.2232 15.901 60.6075 20.8522 54.8084 20.959C54.9924 20.8364 55.1724 20.7061 55.3484 20.5685C55.8511 20.1755 56.0491 19.5066 55.841 18.9033C55.6332 18.3 55.0652 17.895 54.4271 17.895C53.3553 17.895 52.4617 17.0532 51.9205 16.0418C51.9417 16.0426 51.963 16.0432 51.984 16.0438C52.6483 16.0617 53.247 15.6351 53.448 14.9999C53.649 14.3646 53.4055 13.6731 52.8508 13.3039C52.1174 12.8156 51.6217 12.0617 51.4554 11.2141C53.1562 12.6285 55.1452 13.6467 57.3228 14.2048C58.0092 14.3806 58.7303 14.0392 59.0424 13.4032C59.1924 13.0975 59.2336 12.7498 59.1592 12.4177C59.1226 12.2539 59.1048 12.0961 59.1048 11.9349C59.1048 10.8003 60.0278 9.87712 61.1624 9.87712C61.7295 9.87712 62.2761 10.1133 62.662 10.525C62.8826 10.7604 63.1713 10.9163 63.484 10.9736L63.3474 11.2848Z" fill="white"/>
<path d="M33.3204 18.3439H33.8064C34.6324 18.3439 35.3019 17.6744 35.3019 16.8484C35.3019 16.0225 34.6324 15.3529 33.8064 15.3529H33.3204C30.7022 15.3529 28.5722 17.483 28.5722 20.1011V21.34C27.793 21.3916 27.1765 22.0381 27.1765 22.8304C27.1765 23.6227 27.793 24.2693 28.5722 24.3208V28.8248C28.5722 29.6507 29.2417 30.3202 30.0677 30.3202C30.8936 30.3202 31.5632 29.6507 31.5632 28.8248V24.3259H33.3578C34.1837 24.3259 34.8532 23.6563 34.8532 22.8304C34.8532 22.0044 34.1837 21.3349 33.3578 21.3349H31.5632V20.1011C31.5632 19.1322 32.3514 18.3439 33.3204 18.3439Z" fill="white"/>
</g>
<defs>
<clipPath id="clip0">
<rect width="76.5692" height="76.5692" fill="white" transform="translate(0.698242 0.639729)"/>
</clipPath>
</defs>
</svg>
