<svg width="65" height="65" viewBox="0 0 65 65" fill="none" xmlns="http://www.w3.org/2000/svg">
<g clip-path="url(#clip0)">
<path d="M13.435 13.3071C13.435 14.0137 12.8622 14.5866 12.1555 14.5866C11.4488 14.5866 10.876 14.0137 10.876 13.3071C10.876 12.6004 11.4488 12.0275 12.1555 12.0275C12.8622 12.0275 13.435 12.6004 13.435 13.3071ZM6.39764 12.0275C5.69095 12.0275 5.11811 12.6004 5.11811 13.3071C5.11811 14.0137 5.69095 14.5866 6.39764 14.5866C7.10432 14.5866 7.67717 14.0137 7.67717 13.3071C7.67717 12.6004 7.10432 12.0275 6.39764 12.0275ZM65 10.748V56.811C65 57.5177 64.4272 58.0905 63.7205 58.0905H38.2579C37.5236 58.0905 36.9306 57.467 36.9814 56.7222C37.0276 56.0433 37.6232 55.5315 38.3037 55.5315H43.4176L33.4106 46.177C32.2184 45.0625 30.3504 45.0625 29.1583 46.177L24.3227 50.6972C23.8249 51.1656 22.9458 51.1843 22.4498 50.5618L12.0446 37.5541L2.55906 49.4111V55.5315H26.7434C27.4775 55.5327 28.0686 56.1541 28.0187 56.8986C27.9732 57.5779 27.3778 58.0905 26.6971 58.0905H1.27953C0.572845 58.0905 0 57.5177 0 56.811V10.748C0 8.62809 1.71853 6.90942 3.83858 6.90942H61.1614C63.2815 6.90942 65 8.62809 65 10.748ZM33.6811 37.9078C34.5652 35.0796 36.904 32.6031 39.968 31.6533L51.9373 19.7047H2.55906V45.3144L10.046 35.9559C11.0705 34.6753 13.018 34.6753 14.0426 35.9559L23.5849 47.8839L27.4107 44.3075C28.7138 43.0895 30.4595 42.603 32.117 42.8462C32.6589 41.1365 33.3588 38.9391 33.6811 37.9078ZM49.8528 31.2309L57.0691 24.0271C59.4154 21.6809 61.1833 18.9319 62.3273 15.8517C59.2474 16.9954 56.4982 18.7635 54.1513 21.1105L46.9356 28.3136L49.8528 31.2309ZM45.1245 30.1217L42.4532 32.7884L45.3704 35.7056L48.0417 33.0389L45.1245 30.1217ZM34.5653 43.5921C36.2714 43.0516 38.4497 42.3507 39.4776 42.0363C41.7912 41.3287 43.2936 39.4714 43.9071 37.8615L40.296 34.2504C38.2909 34.9972 36.7059 36.7472 36.1211 38.6801C35.8098 39.7086 35.1058 41.8859 34.5653 43.5921ZM62.4409 21.3764C61.4346 22.9789 60.2453 24.4702 58.878 25.8373L46.5035 38.1904C45.6378 41.0727 43.1614 43.5919 40.2495 44.4761C39.4596 44.7159 37.9934 45.1905 36.5813 45.6378L47.1651 55.5315H62.4409V21.3764ZM62.4409 10.748C62.4409 10.0425 61.8669 9.46848 61.1614 9.46848H3.83858C3.13305 9.46848 2.55906 10.0425 2.55906 10.748V17.1456H54.7896C56.9084 15.5048 60.1584 13.7115 62.4409 13.1858V10.748ZM30.9646 29.9409C30.9646 33.1863 28.3241 35.8267 25.0787 35.8267C21.8333 35.8267 19.1929 33.1863 19.1929 29.9409C19.1929 26.6955 21.8333 24.0551 25.0787 24.0551C28.3241 24.0551 30.9646 26.6955 30.9646 29.9409ZM28.4055 29.9409C28.4055 28.1066 26.9131 26.6141 25.0787 26.6141C23.2444 26.6141 21.752 28.1066 21.752 29.9409C21.752 31.7752 23.2444 33.2677 25.0787 33.2677C26.9131 33.2677 28.4055 31.7752 28.4055 29.9409ZM17.9134 12.0275C17.2067 12.0275 16.6339 12.6004 16.6339 13.3071C16.6339 14.0137 17.2067 14.5866 17.9134 14.5866C18.6201 14.5866 19.1929 14.0137 19.1929 13.3071C19.1929 12.6004 18.6201 12.0275 17.9134 12.0275ZM33.7795 56.811C33.7795 57.516 33.205 58.0905 32.5 58.0905C31.795 58.0905 31.2205 57.516 31.2205 56.811C31.2205 56.106 31.795 55.5315 32.5 55.5315C33.205 55.5315 33.7795 56.106 33.7795 56.811Z" fill="#225A93"/>
</g>
<defs>
<clipPath id="clip0">
<rect width="65" height="65" fill="white"/>
</clipPath>
</defs>
</svg>
