<svg width="74" height="58" viewBox="0 0 74 58" fill="none" xmlns="http://www.w3.org/2000/svg">
<path d="M37.4922 55.5648C37.227 55.2995 36.8589 55.1469 36.4837 55.1469C36.1084 55.1469 35.7403 55.2995 35.4751 55.5648C35.2098 55.8302 35.0571 56.1982 35.0571 56.5734C35.0571 56.9486 35.2096 57.3167 35.4751 57.582C35.7403 57.8474 36.1084 58 36.4837 58C36.8589 58 37.227 57.8474 37.4922 57.582C37.7575 57.3167 37.9103 56.9486 37.9103 56.5734C37.9103 56.1982 37.7577 55.8302 37.4922 55.5648Z" fill="#225A93"/>
<path d="M65.4179 30.996L60.659 29.8815V28.031C63.3005 26.3943 65.0598 23.5079 65.0598 20.2247V15.0129C65.0598 9.92321 60.8359 5.78261 55.644 5.78261C52.8433 5.78261 50.3258 6.98897 48.5995 8.89782C47.0876 3.76482 42.2518 0 36.5356 0H36.5355C30.81 0 25.9677 3.77671 24.4642 8.92229C22.7375 6.99932 20.2107 5.78261 17.398 5.78261C12.2061 5.78261 7.98222 9.92335 7.98222 15.0129V20.2247C7.98222 23.508 9.74149 26.3944 12.383 28.031V29.8815L7.62414 30.996C3.13508 32.0471 0 35.941 0 40.4651V49.8661C0 50.6385 0.638828 51.2646 1.42659 51.2646H12.8341V55.4602C12.8341 56.2326 13.4729 56.8587 14.2607 56.8587H29.911C30.6987 56.8587 31.3375 56.2326 31.3375 55.4602C31.3375 54.6878 30.6987 54.0617 29.911 54.0617H23.5422V47.9065C23.5422 47.1341 22.9034 46.508 22.1156 46.508C21.3279 46.508 20.689 47.1341 20.689 47.9065V54.0617H15.6871V47.7518C15.6871 43.0089 18.9731 38.9245 23.6782 37.8192L30.6946 36.171L35.2092 46.2397C35.4369 46.7476 35.9492 47.0755 36.5149 47.0755H36.5151C37.0809 47.0755 37.5933 46.7477 37.821 46.2399L42.331 36.1858L49.327 37.8241C54.0364 38.9269 57.3252 43.0121 57.3252 47.7584V49.319C57.2523 49.4871 57.2118 49.6719 57.2118 49.866C57.2118 50.0601 57.2523 50.245 57.3252 50.4129V54.0617H52.3526V47.9065C52.3526 47.1341 51.7137 46.508 50.926 46.508C50.1382 46.508 49.4994 47.1341 49.4994 47.9065V54.0617H42.5126C41.7249 54.0617 41.086 54.6878 41.086 55.4602C41.086 56.2326 41.7249 56.8587 42.5126 56.8587H58.7518C59.5396 56.8587 60.1784 56.2326 60.1784 55.4602V51.2646H71.615C72.4027 51.2646 73.0416 50.6385 73.0416 49.8661V40.4651C73.0416 35.941 69.9065 32.0471 65.4179 30.996ZM55.6438 8.57965C59.2624 8.57965 62.2065 11.4656 62.2065 15.0129V15.3591V15.4997H58.126C55.0437 15.4997 52.0149 14.7063 49.3456 13.2025C50.1453 10.5338 52.6661 8.57965 55.6438 8.57965ZM49.0812 19.9965C49.0862 19.8537 49.0898 16.2361 49.0898 16.2361C51.8943 17.5882 54.9862 18.2969 58.1261 18.2969H62.2066V20.2249C62.2065 23.7721 59.2624 26.6579 55.6438 26.6579C52.0253 26.6579 49.0812 23.7719 49.0812 20.2247V19.9965ZM26.8342 12.3071C26.8342 7.06324 31.1862 2.79718 36.5355 2.79718C41.8846 2.79718 46.2366 7.06338 46.2366 12.3071V12.4895L40.9418 9.44002C40.3411 9.09389 39.5733 9.22409 39.1257 9.74756C37.0686 12.1541 34.0516 13.5345 30.8485 13.5345H26.8342V12.3071ZM10.8351 15.3593V15.0129C10.8351 11.4655 13.7792 8.57965 17.3977 8.57965C20.3755 8.57965 22.8962 10.5338 23.6959 13.2026C21.0266 14.7063 17.9979 15.4998 14.9155 15.4998H10.8351V15.3593ZM10.8351 20.2247V18.2967H14.9156C18.0587 18.2967 21.1537 17.5868 23.9603 16.2321V20.2247C23.9603 23.7721 21.0163 26.6579 17.3977 26.6579C13.7792 26.6579 10.8351 23.7719 10.8351 20.2247ZM12.8341 47.7518V48.4676H8.55956V42.2541C8.55956 41.4817 7.92073 40.8556 7.13297 40.8556C6.3452 40.8556 5.70637 41.4817 5.70637 42.2541V48.4676H2.85319V40.4651C2.85319 37.2408 5.08752 34.4657 8.28665 33.7165L12.8087 32.6574L15.76 39.5878C13.9141 41.8358 12.8341 44.6852 12.8341 47.7518ZM17.398 36.1737L15.2315 31.0861C15.2339 31.0526 15.2359 31.0192 15.2359 30.9854V29.2067C15.9305 29.3673 16.6538 29.455 17.3977 29.455C18.1384 29.455 18.8583 29.368 19.5502 29.2088V30.8968C19.5486 30.9231 19.5479 30.9494 19.5479 30.9757C19.5479 31.0198 19.5522 31.0636 19.5565 31.1073L17.398 36.1737ZM23.0134 35.0993C22.171 35.2972 21.3659 35.5725 20.6016 35.9121L21.9911 32.6505L26.5138 33.7129C26.8646 33.7953 27.2064 33.9042 27.5372 34.0365L23.0134 35.0993ZM30.0944 32.1843C29.1988 31.6397 28.2162 31.2365 27.1787 30.9929L22.4034 29.8712V28.037C23.591 27.3032 24.5997 26.317 25.3517 25.1551C26.4272 27.215 28.0779 28.9399 30.0944 30.1264V32.1843ZM40.0777 34.2604L36.5154 42.2021L32.9476 34.2449V31.3606C34.0849 31.6937 35.2891 31.8734 36.5353 31.8734C37.7651 31.8734 38.9538 31.6983 40.0777 31.3737V34.2604ZM36.5355 29.0765C31.186 29.0764 26.8342 24.8102 26.8342 19.5664V16.3317H30.8484C34.4896 16.3317 37.9407 14.9208 40.4903 12.4241L46.2282 15.7286V19.8947C46.0507 24.9868 41.7725 29.0765 36.5355 29.0765ZM42.9309 30.1527H42.931C44.9599 28.9702 46.6222 27.244 47.706 25.1797C48.4564 26.3308 49.4591 27.3082 50.6382 28.037V29.8712L45.8628 30.9929C44.8191 31.2381 43.8309 31.6449 42.9309 32.1945V30.1527ZM49.9898 35.1039L45.4782 34.0472C45.8172 33.9101 46.1677 33.7975 46.5278 33.7129L51.0395 32.6531L52.4347 35.9293C51.6605 35.5836 50.8444 35.304 49.9898 35.1039ZM53.4821 31.1282C53.4878 31.0774 53.492 31.0264 53.492 30.9752C53.492 30.9622 53.4918 30.949 53.4914 30.936V29.2088C54.1833 29.3681 54.9032 29.455 55.6438 29.455C56.3878 29.455 57.1111 29.3673 57.8057 29.2066V30.9852C57.8057 31.0107 57.8076 31.0357 57.809 31.0609L55.6309 36.1737L53.4821 31.1282ZM70.1884 48.4676H67.3352V42.2541C67.3352 41.4817 66.6964 40.8556 65.9086 40.8556C65.1208 40.8556 64.482 41.4817 64.482 42.2541V48.4676H60.1784V47.7585C60.1784 44.6959 59.1019 41.8505 57.2613 39.6045L60.2219 32.6549L64.7549 33.7165C67.9541 34.4657 70.1884 37.2408 70.1884 40.4651V48.4676Z" fill="#225A93"/>
</svg>
