<svg width="32" height="32" xmlns="http://www.w3.org/2000/svg">

 <g>
  <title>background</title>
  <rect fill="none" id="canvas_background" height="402" width="582" y="-1" x="-1"/>
 </g>
 <g>
  <title>Layer 1</title>
  <path id="svg_1" fill="#ffffff" d="m15.737,31c-8.263,0 -14.737,-6.589 -14.737,-15c0,-3.629 1.237,-7.111 3.485,-9.804c0.178,-0.212 0.492,-0.239 0.704,-0.063c0.212,0.177 0.241,0.492 0.064,0.704c-2.098,2.513 -3.253,5.767 -3.253,9.163c0,7.851 6.034,14 13.737,14c7.865,0 14.263,-6.28 14.263,-14s-6.398,-14 -14.263,-14c-2.44,0 -4.813,0.62 -6.858,1.792c-0.237,0.133 -0.545,0.054 -0.682,-0.186c-0.137,-0.24 -0.054,-0.545 0.186,-0.683c2.196,-1.258 4.739,-1.923 7.354,-1.923c8.416,0 15.263,6.729 15.263,15s-6.847,15 -15.263,15z"/>
  <path id="svg_8" fill="#ffffff" d="m7.543,4.552c0,0.275 -0.225,0.5 -0.5,0.5l0,0c-0.275,0 -0.5,-0.225 -0.5,-0.5l0,0c0,-0.275 0.225,-0.5 0.5,-0.5l0,0c0.275,0 0.5,0.224 0.5,0.5l0,0z"/>
  <path id="svg_10" fill="#ffffff" d="m19.55,24.018c-0.111,0 -0.224,-0.037 -0.316,-0.113l-5.763,-4.721c-0.113,-0.092 -0.18,-0.229 -0.184,-0.375c-0.003,-0.146 0.057,-0.285 0.165,-0.383l4.277,-3.86c0.205,-0.187 0.521,-0.169 0.706,0.036c0.186,0.205 0.169,0.521 -0.036,0.706l-3.846,3.47l5.313,4.353c0.214,0.175 0.245,0.49 0.07,0.704c-0.098,0.12 -0.242,0.183 -0.386,0.183z"/>
  <path id="svg_11" fill="#ffffff" d="m20.157,24.204l0,0c-0.265,0 -0.55,-0.083 -0.849,-0.248l-3.286,-2.641l-1.684,1.553c-0.234,0.229 -0.52,0.507 -1.089,0.507c-0.7,0 -0.863,-0.369 -0.97,-0.748c-0.019,-0.065 -0.04,-0.141 -0.071,-0.228l-1.206,-3.969l-3.456,-1.078c-0.814,-0.25 -0.923,-0.749 -0.932,-0.951c-0.014,-0.336 0.161,-0.815 1.074,-1.181l14.848,-5.729c0.425,-0.166 0.924,-0.032 1.212,0.323c0.203,0.249 0.281,0.573 0.215,0.889l-2.565,12.275c-0.23,1.106 -0.945,1.226 -1.241,1.226zm-4.157,-4.049c0.111,0 0.222,0.037 0.313,0.111l3.55,2.862c0.459,0.219 0.5,-0.085 0.557,-0.354l2.565,-12.274l-0.063,-0.081l-14.866,5.732c-0.175,0.07 -0.29,0.139 -0.36,0.19c0.037,0.018 0.086,0.037 0.147,0.056l3.711,1.158c0.157,0.05 0.281,0.174 0.329,0.332l1.274,4.196c0.033,0.088 0.061,0.188 0.085,0.272c0.002,0.006 0.004,0.013 0.005,0.019c0.133,-0.001 0.203,-0.037 0.388,-0.218l2.026,-1.87c0.096,-0.086 0.217,-0.131 0.339,-0.131z"/>
  <path id="svg_18" fill="#ffffff" d="m20.043,13.552c0,0.275 -0.225,0.5 -0.5,0.5l0,0c-0.275,0 -0.5,-0.225 -0.5,-0.5l0,0c0,-0.275 0.225,-0.5 0.5,-0.5l0,0c0.275,0 0.5,0.224 0.5,0.5l0,0z"/>
 </g>
</svg>