<svg width="65" height="65" viewBox="0 0 65 65" fill="none" xmlns="http://www.w3.org/2000/svg">
<path d="M55.4809 9.51907C49.3425 3.38051 41.1811 0 32.5 0C23.8189 0 15.6575 3.38051 9.51907 9.51907C3.38051 15.6575 0 23.8189 0 32.5C0 41.1811 3.38051 49.3425 9.51907 55.4811C15.6575 61.6194 23.8189 65 32.5 65C41.1811 65 49.3425 61.6194 55.4809 55.4811C61.6195 49.3425 65 41.1811 65 32.5C65 23.8189 61.6195 15.6575 55.4809 9.51907ZM32.5 62.4609C15.9795 62.4609 2.53906 49.0205 2.53906 32.5C2.53906 15.9795 15.9795 2.53906 32.5 2.53906C49.0205 2.53906 62.4609 15.9795 62.4609 32.5C62.4609 49.0205 49.0205 62.4609 32.5 62.4609Z" fill="#225A93"/>
<path d="M50.6331 14.3665C40.6344 4.36776 24.3652 4.36776 14.3663 14.3665C10.2335 18.4994 7.69502 23.7464 7.0256 29.5403C6.37611 35.1605 7.61834 40.9091 10.5232 45.7273C10.8852 46.3275 11.6654 46.5211 12.2658 46.1591C12.8663 45.797 13.0597 45.0166 12.6976 44.4163C7.20765 35.31 8.63219 23.6914 16.1618 16.1617C25.1706 7.15285 39.8291 7.15285 48.8379 16.1617C57.8467 25.1705 57.8467 39.8291 48.8379 48.8378C41.2241 56.4518 29.5183 57.823 20.3712 52.1725C19.7747 51.804 18.9925 51.9889 18.6239 52.5853C18.2554 53.182 18.4402 53.9642 19.0368 54.3327C23.0734 56.8263 27.7763 58.1427 32.5254 58.1427C33.4588 58.1427 34.3947 58.0919 35.3265 57.9891C41.0893 57.3535 46.5253 54.7411 50.6331 50.6334C60.6319 40.6346 60.6319 24.3653 50.6331 14.3665Z" fill="#225A93"/>
<path d="M16.1744 48.8505L16.1558 48.8317C15.6615 48.3342 14.8577 48.3315 14.3604 48.8257C13.863 49.3199 13.8603 50.1238 14.3545 50.6212L14.3732 50.64C14.6213 50.8898 14.9475 51.0148 15.2738 51.0148C15.5973 51.0148 15.9209 50.8919 16.1686 50.646C16.666 50.1517 16.6686 49.3479 16.1744 48.8505Z" fill="#225A93"/>
<path d="M36.9514 41.3783H36.3085V29.9741C36.3085 27.8741 34.6 26.1655 32.5 26.1655H28.9453C26.8452 26.1655 25.1367 27.8741 25.1367 29.9741C25.1367 31.9889 26.7092 33.6432 28.6914 33.7743V41.3783H28.0483C25.9483 41.3783 24.2397 43.0869 24.2397 45.1869C24.2397 47.287 25.9483 48.9955 28.0483 48.9955H36.9514C39.0515 48.9955 40.76 47.287 40.76 45.1869C40.76 43.0869 39.0515 41.3783 36.9514 41.3783ZM36.9516 46.4564H28.0485C27.3484 46.4564 26.7789 45.8869 26.7789 45.1869C26.7789 44.4869 27.3484 43.9174 28.0485 43.9174H29.9609C30.6621 43.9174 31.2304 43.3489 31.2304 42.6479V32.5132C31.2304 31.812 30.6621 31.2437 29.9609 31.2437H28.9453C28.2452 31.2437 27.6757 30.6741 27.6757 29.9741C27.6757 29.2741 28.2452 28.7046 28.9453 28.7046H32.5C33.2 28.7046 33.7695 29.2741 33.7695 29.9741V42.6479C33.7695 43.3489 34.3379 43.9174 35.039 43.9174H36.9516C37.6516 43.9174 38.2211 44.4869 38.2211 45.1869C38.2211 45.8869 37.6516 46.4564 36.9516 46.4564Z" fill="#225A93"/>
<path d="M32.5 16.0044C30.3999 16.0044 28.6914 17.7129 28.6914 19.813C28.6914 21.913 30.3999 23.6216 32.5 23.6216C34.6001 23.6216 36.3086 21.913 36.3086 19.813C36.3086 17.7129 34.6001 16.0044 32.5 16.0044ZM32.5 21.0825C31.8 21.0825 31.2305 20.513 31.2305 19.813C31.2305 19.113 31.8 18.5435 32.5 18.5435C33.2 18.5435 33.7695 19.113 33.7695 19.813C33.7695 20.513 33.2 21.0825 32.5 21.0825Z" fill="#225A93"/>
</svg>
