<svg id="Layer_1" data-name="Layer 1" xmlns="http://www.w3.org/2000/svg" viewBox="0 0 48 48"><defs><style>.cls-1{fill:none;}.cls-2{fill:#fcfcfc;}</style></defs><title>iconfinder_ic_local_phone_48px_352510</title><path class="cls-1" d="M0,0H48V48H0Z" transform="translate(0 0)"/><path class="cls-2" d="M13.25,21.59A30.12,30.12,0,0,0,26.43,34.76l4.4-4.41a2,2,0,0,1,2-.49A22.77,22.77,0,0,0,40,31a2,2,0,0,1,2,2v7a2,2,0,0,1-2,2A34,34,0,0,1,6,8,2,2,0,0,1,8,6h7a2,2,0,0,1,2,2,22.77,22.77,0,0,0,1.14,7.14,2,2,0,0,1-.49,2Z" transform="translate(0 0)"/></svg>