<svg width="66" height="66" viewBox="0 0 66 66" fill="none" xmlns="http://www.w3.org/2000/svg">
<g clip-path="url(#clip0)">
<path d="M36.6998 5.23369V4.17666C36.6998 2.13994 35.0369 0.477051 33.0002 0.477051C32.0076 0.477051 31.0795 0.86377 30.3834 1.55986C29.6873 2.25596 29.3006 3.18408 29.3006 4.17666V5.23369H27.2252C26.9158 5.23369 26.6193 5.34971 26.4131 5.56885L15.2111 16.7579C14.1154 17.8536 13.5225 19.2974 13.5225 20.8442V60.702C13.5225 62.2489 14.1283 63.6927 15.2111 64.7884C16.3068 65.8841 17.7506 66.4771 19.2975 66.4771H46.7158C48.3143 66.4771 49.758 65.8325 50.8022 64.7884C51.8463 63.7442 52.4908 62.3005 52.4908 60.702V45.9681C52.4908 45.3364 51.9752 44.8079 51.3307 44.8079C50.699 44.8079 50.1705 45.3235 50.1705 45.9681V60.7149C50.1705 62.6228 48.6107 64.1825 46.7029 64.1825H19.2846C18.3564 64.1825 17.4928 63.8216 16.8354 63.1642C16.1779 62.5067 15.817 61.6431 15.817 60.7149V20.8571C15.817 19.929 16.1779 19.0653 16.8354 18.4079L27.7021 7.554H29.3006V11.9368C27.9213 13.0454 27.0963 14.7212 27.0963 16.5259C27.0963 19.7743 29.7389 22.4169 32.9873 22.4169C34.56 22.4169 36.0424 21.7981 37.151 20.6896C38.2596 19.581 38.8783 18.0985 38.8783 16.5259C38.8783 14.7341 38.0662 13.0583 36.6869 11.9497V7.56689H38.3111L49.1521 18.4208C49.8096 19.0782 50.1705 19.9419 50.1705 20.87V35.5782C50.1705 36.2099 50.6861 36.7384 51.3307 36.7384C51.6529 36.7384 51.9365 36.6095 52.1428 36.4032C52.349 36.197 52.4779 35.9005 52.4779 35.5911V20.8442C52.4779 19.2974 51.8721 17.8536 50.7893 16.7579L39.6131 5.56885C39.3939 5.34971 39.0975 5.23369 38.801 5.23369H36.6998ZM32.0205 3.19697C32.2783 2.93916 32.6264 2.79736 33.0002 2.79736C33.7607 2.79736 34.3924 3.41611 34.3924 4.18955V13.9735C34.3924 14.3474 34.2506 14.6954 33.9928 14.9532C33.735 15.211 33.3869 15.3528 33.0131 15.3528C32.2525 15.3528 31.6209 14.7341 31.6209 13.9606V4.17666C31.6209 3.81572 31.7627 3.46768 32.0205 3.19697ZM35.5268 19.0396C34.8564 19.7099 33.9541 20.0837 33.0002 20.0837C31.0279 20.0837 29.4166 18.4724 29.4166 16.5001C29.4166 16.1134 29.4811 15.7396 29.5971 15.3915C30.1514 16.7192 31.4791 17.6603 33.0002 17.6603C33.9928 17.6603 34.9209 17.2735 35.617 16.5774C35.965 16.2294 36.2229 15.8427 36.4033 15.4044C36.5193 15.7524 36.5709 16.1263 36.5709 16.5001C36.5838 17.4669 36.21 18.3692 35.5268 19.0396Z" fill="#225A93"/>
<path d="M50.5188 39.961C50.2996 40.1802 50.1836 40.4766 50.1836 40.7731C50.1836 41.0825 50.3125 41.379 50.5188 41.5852C50.7379 41.8044 51.0344 41.9204 51.3309 41.9204C51.6402 41.9204 51.9367 41.7915 52.143 41.5852C52.3621 41.3661 52.4781 41.0696 52.4781 40.7731C52.4781 40.4637 52.3492 40.1673 52.143 39.961C51.9238 39.7419 51.6273 39.6259 51.3309 39.6259C51.0344 39.6259 50.7379 39.7419 50.5188 39.961Z" fill="#225A93"/>
<path d="M31.6593 35.8102V44.4211C31.6593 45.1559 32.2523 45.7618 33 45.7618C33.7347 45.7618 34.3406 45.1688 34.3406 44.4211V35.836C38.7105 36.6094 41.0308 41.0954 41.0308 44.4211C41.0308 45.1559 41.6238 45.7618 42.3714 45.7618C43.1062 45.7618 43.7121 45.1688 43.7121 44.4211C43.7121 39.2262 39.9996 33.8637 34.3406 33.129V31.711C34.3406 30.9762 33.7476 30.3704 33 30.3704C32.2652 30.3704 31.6593 30.9633 31.6593 31.711V33.1161C25.7554 33.7477 22.2878 38.8137 22.2878 44.4211C22.2878 45.1559 22.8808 45.7618 23.6285 45.7618C24.3632 45.7618 24.9691 45.1688 24.9691 44.4211C24.9691 41.6239 26.4 36.545 31.6593 35.8102Z" fill="#225A93"/>
</g>
<defs>
<clipPath id="clip0">
<rect width="66" height="66" fill="white"/>
</clipPath>
</defs>
</svg>
