<svg width="65" height="65" viewBox="0 0 65 65" fill="none" xmlns="http://www.w3.org/2000/svg">
<path d="M45.542 21.3401C43.6459 21.3401 41.7909 21.61 40.0024 22.1414C40.0732 21.4576 40.1098 20.7638 40.1098 20.0617C40.1098 16.8486 39.3723 13.7785 37.9182 10.9369C37.5985 10.3128 36.8337 10.0659 36.2099 10.3852C35.5859 10.7047 35.3389 11.4693 35.6582 12.0934C36.9274 14.5735 37.571 17.2544 37.571 20.0615C37.571 29.7202 29.7132 37.5778 20.0547 37.5778C17.8031 37.5778 15.6101 37.1562 13.537 36.3243C13.0654 36.1355 12.5262 36.2456 12.1668 36.6048L9.39277 39.3791V34.5721C9.39277 34.1927 9.22304 33.8332 8.93015 33.592C4.86828 30.2482 2.53856 25.3165 2.53856 20.0615C2.53856 10.4029 10.3963 2.54528 20.0548 2.54528C22.3861 2.54528 24.6494 2.99545 26.7821 3.88337C27.4702 4.16977 28.1472 4.5043 28.7943 4.87767C29.4014 5.2278 30.1776 5.01973 30.528 4.41251C30.8782 3.80542 30.67 3.0291 30.0628 2.67883C29.3217 2.25138 28.5461 1.86798 27.7578 1.53981C25.3145 0.52253 22.7229 0.0065918 20.055 0.0065918C8.99668 0.0065918 0 9.00327 0 20.0615C0 25.8756 2.49019 31.3438 6.85421 35.1593V42.4434C6.85421 42.9568 7.1636 43.4197 7.63777 43.6161C7.79481 43.6811 7.95972 43.7127 8.12324 43.7127C8.45357 43.7127 8.77819 43.5837 9.02105 43.341L13.3833 38.9787C15.5222 39.734 17.7623 40.1164 20.055 40.1164C22.1807 40.1164 24.2296 39.7827 26.1535 39.1671C26.1082 39.7095 26.0841 40.2539 26.0841 40.7978C26.0841 43.7693 26.7368 46.622 28.0239 49.2769C28.2434 49.7291 28.6958 49.9927 29.1669 49.9927C29.3528 49.9927 29.5414 49.9518 29.7198 49.8652C30.3505 49.5594 30.6139 48.8001 30.3081 48.1693C29.1896 45.8625 28.6225 43.3825 28.6225 40.798C28.6225 39.8901 28.6965 38.981 28.8406 38.0866C34.0735 35.5256 38.0341 30.7523 39.4956 24.9924C41.4226 24.2538 43.4532 23.8786 45.5419 23.8786C54.8713 23.8786 62.4613 31.4687 62.4613 40.798C62.4613 45.9806 60.1324 50.8074 56.0719 54.041C55.7694 54.2817 55.5933 54.6472 55.5933 55.0339V60.6612L52.1164 57.1844C51.7777 56.8458 51.2776 56.7266 50.823 56.8759C49.1219 57.4342 47.3451 57.7174 45.5419 57.7174C42.9622 57.7174 40.4859 57.1522 38.1824 56.0375C37.5517 55.7323 36.7924 55.9961 36.4869 56.6272C36.1816 57.2581 36.4457 58.0172 37.0766 58.3226C39.7278 59.6054 42.576 60.2559 45.5419 60.2559C47.3497 60.2559 49.1353 60.0081 50.8606 59.5183L55.9651 64.6228C56.208 64.8657 56.5326 64.9945 56.8629 64.9945C57.0264 64.9945 57.1915 64.9629 57.3484 64.8979C57.8226 64.7014 58.132 64.2386 58.132 63.7252V55.6332C62.5049 51.9232 64.9999 46.5514 64.9999 40.7978C65.0001 30.0689 56.2712 21.3401 45.542 21.3401Z" fill="#225A93"/>
<path d="M33.7592 52.9392C33.7203 52.9017 33.6817 52.8638 33.6432 52.8256C33.1455 52.3322 32.3417 52.3358 31.8482 52.8336C31.3547 53.3314 31.3584 54.1351 31.8562 54.6286C31.901 54.673 31.946 54.717 31.9911 54.7609C32.2378 55.0003 32.5566 55.1193 32.8751 55.1193C33.2063 55.1193 33.5373 54.9903 33.7861 54.7341C34.2743 54.231 34.2622 53.4274 33.7592 52.9392Z" fill="#225A93"/>
<path d="M34.772 6.43667C34.2209 5.8485 33.4208 5.93533 32.9655 6.35936C32.5104 6.783 32.3667 7.57506 32.914 8.16679C32.9178 8.17085 32.9217 8.17504 32.9255 8.17911C33.1995 8.46742 33.5327 8.59094 33.8547 8.59094C34.1853 8.59094 34.5034 8.46056 34.7327 8.24449C35.1849 7.81767 35.3233 7.02472 34.772 6.43667Z" fill="#225A93"/>
<path d="M14.5334 15.6808C14.2973 15.4447 13.971 15.3088 13.636 15.3088C13.3021 15.3088 12.9747 15.4447 12.7385 15.6808C12.5025 15.9168 12.3667 16.2442 12.3667 16.5781C12.3667 16.912 12.5025 17.2394 12.7385 17.4756C12.9747 17.7117 13.3021 17.8474 13.636 17.8474C13.9699 17.8474 14.2973 17.7117 14.5334 17.4756C14.7708 17.2394 14.9053 16.912 14.9053 16.5781C14.9053 16.2442 14.7707 15.9167 14.5334 15.6808Z" fill="#225A93"/>
<path d="M27.3711 15.6808C27.1351 15.4447 26.8076 15.3088 26.4736 15.3088C26.1385 15.3088 25.8111 15.4447 25.575 15.6808C25.3389 15.9168 25.2043 16.2442 25.2043 16.5781C25.2043 16.912 25.339 17.2394 25.575 17.4756C25.8123 17.7117 26.1397 17.8474 26.4736 17.8474C26.8075 17.8474 27.1337 17.7117 27.3711 17.4756C27.6072 17.2394 27.7429 16.912 27.7429 16.5781C27.7429 16.2442 27.6073 15.9167 27.3711 15.6808Z" fill="#225A93"/>
<path d="M24.915 23.1789C24.2373 22.9975 23.542 23.4004 23.3611 24.0776C22.9614 25.574 21.6019 26.6191 20.055 26.6191C18.508 26.6191 17.1486 25.574 16.7489 24.0776C16.5679 23.4003 15.8724 22.9974 15.1949 23.1789C14.5177 23.3599 14.1153 24.0555 14.2962 24.7328C14.9923 27.3382 17.3603 29.1576 20.055 29.1576C22.7496 29.1576 25.1176 27.3382 25.8137 24.7328C25.9946 24.0554 25.5923 23.3598 24.915 23.1789Z" fill="#225A93"/>
<path d="M40.234 36.5047C39.998 36.2685 39.6718 36.1328 39.3367 36.1328C39.0028 36.1328 38.6754 36.2685 38.4392 36.5047C38.2031 36.7409 38.0674 37.0682 38.0674 37.4021C38.0674 37.7373 38.2031 38.0634 38.4392 38.2994C38.6754 38.5355 39.0028 38.6714 39.3367 38.6714C39.6718 38.6714 39.998 38.5355 40.234 38.2994C40.4714 38.0634 40.6059 37.736 40.6059 37.4021C40.6059 37.0682 40.4714 36.7408 40.234 36.5047Z" fill="#225A93"/>
<path d="M52.6443 36.5048C52.4081 36.2686 52.0819 36.1329 51.7468 36.1329C51.4129 36.1329 51.0855 36.2686 50.8494 36.5048C50.6134 36.7409 50.4775 37.0683 50.4775 37.4022C50.4775 37.7374 50.6134 38.0635 50.8494 38.2995C51.0855 38.5356 51.4129 38.6715 51.7468 38.6715C52.0819 38.6714 52.4081 38.5355 52.6443 38.2995C52.8803 38.0635 53.0161 37.7361 53.0161 37.4022C53.0161 37.0683 52.8804 36.7409 52.6443 36.5048Z" fill="#225A93"/>
<path d="M51.1497 48.0089C50.4721 45.472 48.1659 43.7 45.5419 43.7C42.9179 43.7 40.6118 45.4718 39.934 48.0089C39.7529 48.6862 40.1554 49.3817 40.8327 49.5628C41.5105 49.7443 42.2056 49.3412 42.3866 48.6641C42.7681 47.236 44.0658 46.2386 45.5418 46.2386C47.0181 46.2386 48.3157 47.2361 48.6971 48.6641C48.8486 49.2317 49.3617 49.6062 49.9225 49.6062C50.031 49.6062 50.1413 49.5922 50.251 49.5628C50.9284 49.3817 51.3307 48.6862 51.1497 48.0089Z" fill="#225A93"/>
</svg>
