<svg width="17" height="19" viewBox="0 0 17 19" fill="none" xmlns="http://www.w3.org/2000/svg">
<path d="M1.88554 10.0606L8.78104 3.16659C9.48545 2.46852 10.4377 2.0779 11.4294 2.08021C12.4211 2.08252 13.3716 2.47757 14.0727 3.17892C14.7739 3.88027 15.1686 4.8308 15.1707 5.82252C15.1727 6.81424 14.7818 7.76638 14.0835 8.47059L6.12903 16.4251C5.84613 16.6983 5.46723 16.8495 5.07393 16.8461C4.68064 16.8427 4.30442 16.6849 4.02631 16.4068C3.74819 16.1287 3.59044 15.7525 3.58702 15.3592C3.58361 14.9659 3.7348 14.587 4.00804 14.3041L11.9625 6.34809C12.0992 6.20664 12.1748 6.01719 12.173 5.82054C12.1713 5.62389 12.0925 5.43578 11.9534 5.29673C11.8143 5.15767 11.6262 5.0788 11.4296 5.07709C11.2329 5.07538 11.0435 5.15097 10.902 5.28759L2.94604 13.2451C2.38351 13.8078 2.06757 14.571 2.06771 15.3666C2.06778 15.7606 2.14545 16.1507 2.29628 16.5147C2.44711 16.8786 2.66815 17.2093 2.94679 17.4878C3.22542 17.7664 3.55618 17.9873 3.9202 18.138C4.28421 18.2887 4.67434 18.3662 5.06832 18.3662C5.86399 18.366 6.62701 18.0498 7.18954 17.4871L15.144 9.53259C16.1287 8.54797 16.6818 7.21255 16.6818 5.82009C16.6818 4.42763 16.1287 3.09221 15.144 2.10759C14.1594 1.12298 12.824 0.569824 11.4315 0.569824C10.0391 0.569824 8.70365 1.12298 7.71904 2.10759L0.825035 9.00009C0.753403 9.06928 0.696266 9.15204 0.656959 9.24354C0.617652 9.33504 0.596963 9.43346 0.596098 9.53304C0.595232 9.63262 0.614208 9.73138 0.651919 9.82356C0.68963 9.91573 0.74532 9.99947 0.815739 10.0699C0.886159 10.1403 0.969898 10.196 1.06207 10.2337C1.15424 10.2714 1.253 10.2904 1.35259 10.2895C1.45217 10.2887 1.55059 10.268 1.64209 10.2287C1.73359 10.1894 1.81635 10.1322 1.88554 10.0606Z" fill="white"/>
</svg>
