<svg id="Layer_1" data-name="Layer 1" xmlns="http://www.w3.org/2000/svg" viewBox="0 0 595.28 598.14"><defs><style>.cls-1{fill:#1d84c4;fill-rule:evenodd;}</style></defs><title>wpblue</title><path id="WhatsApp-Logo" class="cls-1" d="M434,480.31c-7.41-3.7-43.82-21.62-50.6-24.09s-11.73-3.71-16.67,3.71S347.61,484,343.29,489s-8.64,5.57-16,1.86S296,479.29,267.69,454.06c-22-19.64-36.88-43.89-41.2-51.3s-.46-11.43,3.25-15.12c3.33-3.32,7.41-8.65,11.11-13s4.94-7.42,7.4-12.36,1.24-9.26-.61-13-16.66-40.16-22.84-55c-6-14.44-12.11-12.49-16.66-12.71-4.31-.22-9.26-.26-14.19-.26a27.21,27.21,0,0,0-19.75,9.26c-6.79,7.42-25.92,25.33-25.92,61.78s26.53,71.67,30.24,76.62S230.74,508.78,305,540.86a425.58,425.58,0,0,0,42.22,15.6c17.74,5.64,33.89,4.84,46.65,2.94,14.23-2.13,43.81-17.92,50-35.22s6.18-32.13,4.32-35.22S441.42,484,434,480.31M298.88,664.82h-.1A246,246,0,0,1,173.4,630.48l-9-5.34L71.16,649.6l24.89-90.91-5.86-9.32a245.73,245.73,0,0,1-37.66-131.1C52.58,282.44,163.1,171.94,299,171.94A246.37,246.37,0,0,1,545.23,418.47c-.05,135.83-110.57,246.35-246.35,246.35m209.67-456a294.48,294.48,0,0,0-209.67-86.92c-163.37,0-296.33,133-296.4,296.37A295.87,295.87,0,0,0,42.05,566.43L0,720,157.12,678.8a296.1,296.1,0,0,0,141.64,36.07h.12c163.36,0,296.33-133,296.4-296.38A294.64,294.64,0,0,0,508.55,208.8" transform="translate(0 -121.88)"/></svg>